<svg xmlns="http://www.w3.org/2000/svg" viewBox="0 0 758.3 982.7"><g transform="matrix(0 1 -1 0 879.250061 -8.949899)"><path d="M990 310.8c0-31.2-21.5-49.8-37.3-60.5 4.8-18.4 9.1-47.1-12.3-70.5 -8.6-9.4-24.1-20.5-49.1-20.5 -8.2 0-16 1.2-22.8 2.6 -11-16.7-29.7-40-62.7-40l-4.9 0.2c-39.4 3.8-59 26.8-69.5 39.1 -0.6 0.7-1.2 1.4-1.8 2.1 -0.7-0.5-1.5-1.1-2.1-1.5 -13.3-9.7-36-27-75.3-22.4 -38.5 4.5-57.7 27-68.1 39.1 -0.7 0.8-1.4 1.7-2.1 2.5 -0.7-0.5-1.3-1-2-1.5 -12.2-8.7-32.5-23.4-67.1-23.4 -34.7 0-55.3 14.4-67.7 23 -1.4 1-2.8 2.1-4.3 3 -1.2-1.2-2.8-3-4.1-4.5 -10.6-11.8-30.3-33.9-69-38.3 -39.4-4.4-62.3 12.5-75.7 22 -1.3 0.9-2.9 2.1-4.2 3 -1.1-1.2-2.5-2.7-3.6-3.9 -10.8-12.1-30.8-34.7-70.3-38.4l-4.8-0.2c-32.9 0-52.2 23.8-63.4 39.8 -8.3-2-17.9-4-28.1-4 -21.9 0-36.5 9-44.8 16.5 -25.1 22.6-22.7 53.2-19.8 72.6C36.5 256.8 10 275.8 10 310.8c0 40.4 16.9 63.7 27 77.6 6.8 9.3 7.3 10.1 7.3 17 0 6.9-0.6 7.6-7.3 17 -10.1 13.9-27 37.2-27 77.6 0 40.4 16.9 63.7 27.1 77.6 6.8 9.3 7.3 10.1 7.3 16.9 0 6.8-0.6 7.6-7.3 16.9C27 625.4 10 648.7 10 689.1c0 34.5 25.7 53.5 42.3 63.7 -3.2 19.4-5.9 49.7 18.8 72.3 8.4 7.8 23.1 17 45.4 17 10 0 19.3-1.8 27.4-3.8 11.2 16.1 30.3 39.9 63.3 39.9h2.4l2.4-0.3c39.5-3.6 59.7-26.2 70.5-38.2 1.2-1.4 2.8-3.1 4-4.3 1.4 0.9 3.2 2.2 4.7 3.3 13.4 9.5 36.4 26.4 75.9 21.9 38.7-4.3 58.5-26.3 69.1-38.1 1.3-1.5 3-3.4 4.2-4.6l0.3 0c1.6 0.9 3 2.1 4.5 3.1 12.3 8.6 33 23 67.8 23 34.6 0 55-14.6 67.2-23.3 0.8-0.6 1.7-1.2 2.5-1.8 0.9 1 1.8 2 2.6 3 10.4 12.1 29.7 34.5 68.3 39 39.4 4.5 62-12.7 75.3-22.3 0.8-0.5 1.7-1.2 2.5-1.8 0.7 0.8 1.5 1.7 2.1 2.5 10.6 12.3 30.3 35.3 69.7 39l4.9 0.2c33.1 0 51.7-23.3 62.6-40.1 6.7 1.3 14.1 2.4 22 2.4 26.9 0 42.8-13.3 49.8-21.3 20.9-23.6 16.4-51.8 11.2-70.1 15.6-10.8 36.5-29.4 36.5-60 0-41-15.2-62.7-25.3-77.1 -6.1-8.6-8.1-11.5-9.3-21.6 -0.3-2.3-0.2-3.4-0.2-3.4 0.6-1.5 3.8-5.8 6.2-9 10.7-14.3 28.6-38.1 28.6-78.1 0-40.4-16.9-63.7-27.1-77.6 -6.8-9.3-7.3-10.1-7.3-16.9 0-6.8 0.5-7.6 7.3-16.9C973 374.5 990 351.3 990 310.8zM852.5 296.7v108.6 175.6 13.2 109.8 19.5H846 624.5h-83.1 -58.4 -84.6H156.6h-9v-23.4V594.6 405.5 300.4v-23.9h9.4 241.9 83.9 58.4 82.5 221.9 6.8V296.7z"/></g></svg>
